<svg xmlns="http://www.w3.org/2000/svg" width="84.019" height="10.825" viewBox="0 0 84.019 10.825" fill="none">
  <path d="M 84.019 8.069 C 82.541 10.186 80.041 10.825 77.684 10.825 C 73.635 10.825 70.287 8.729 70.287 5.458 C 70.287 2.326 73.635 0.104 77.8 0.104 C 79.724 0.104 81.609 0.462 83.076 1.763 L 83.199 1.874 C 83.26 1.931 83.334 2.007 83.397 2.072 C 83.483 2.16 83.55 2.235 83.55 2.235 C 83.377 2.42 83.208 2.522 83.049 2.569 C 82.873 2.623 82.709 2.608 82.57 2.566 C 82.287 2.478 82.102 2.275 82.102 2.275 C 81.076 1.281 79.798 0.922 78.388 0.922 C 75.392 0.922 73.462 2.632 73.462 5.519 C 73.462 8.068 74.97 9.567 77.509 9.813 C 77.753 9.851 78.014 9.873 78.301 9.873 C 78.744 9.873 79.185 9.821 79.615 9.732 C 80.187 9.624 80.728 9.44 81.229 9.167 C 81.976 8.789 82.616 8.278 83.057 7.672 L 84.019 8.069 Z M 7.396 10.825 C 3.348 10.825 0 8.729 0 5.458 C 0 2.326 3.348 0.104 7.514 0.104 C 9.437 0.104 11.322 0.462 12.789 1.764 L 12.913 1.874 C 12.974 1.931 13.048 2.007 13.111 2.072 C 13.196 2.16 13.263 2.235 13.263 2.235 C 13.091 2.42 12.921 2.522 12.763 2.569 C 12.587 2.624 12.423 2.608 12.284 2.566 C 12.001 2.478 11.816 2.275 11.816 2.275 C 10.79 1.281 9.511 0.922 8.101 0.922 C 5.104 0.922 3.174 2.632 3.174 5.519 C 3.174 8.068 4.684 9.567 7.223 9.813 C 7.466 9.851 7.728 9.873 8.014 9.873 C 8.456 9.873 8.899 9.821 9.329 9.732 C 9.9 9.624 10.441 9.44 10.942 9.167 C 11.69 8.789 12.33 8.278 12.771 7.672 L 13.733 8.069 C 12.256 10.186 9.755 10.825 7.396 10.825 L 7.396 10.825 Z M 39.74 3.348 C 39.74 5.036 38.056 6.489 35.704 6.489 L 32.281 6.489 L 32.281 6.034 C 32.281 5.782 32.487 5.576 32.737 5.576 L 33.023 5.576 L 34.295 5.576 C 35.645 5.576 36.75 4.586 36.75 3.383 C 36.75 2.178 35.645 1.189 34.295 1.189 L 31.84 1.189 L 31.84 10.648 L 28.875 10.648 L 28.875 0.282 L 31.727 0.282 L 31.729 0.282 L 35.704 0.282 C 38.056 0.282 39.74 1.662 39.74 3.348 L 39.74 3.348 Z M 59.634 0.282 L 68.626 0.281 L 68.626 1.189 L 62.6 1.189 L 62.6 4.667 L 68.226 4.667 L 68.226 5.566 L 62.6 5.566 L 62.6 9.742 L 68.626 9.742 L 68.626 10.648 L 59.634 10.648 L 59.634 0.282 Z M 23.933 10.648 L 22.001 7.406 L 18.001 7.406 L 18.397 6.703 C 18.478 6.582 18.616 6.503 18.773 6.503 L 21.458 6.501 L 19.755 3.633 L 15.625 10.648 L 14.101 10.648 L 20.477 0 L 27.112 10.648 L 23.933 10.648 Z M 56.456 0.281 L 57.706 0.282 L 57.706 1.189 L 53.722 1.189 L 53.722 10.648 L 50.78 10.648 L 50.78 1.189 L 46.795 1.193 L 46.797 0.282 L 56.456 0.281 Z M 41.894 10.628 L 44.877 10.628 L 44.877 0.273 L 41.894 0.273 L 41.894 10.628 Z" fill="currentColor" fill-rule="evenodd"></path>
</svg>