<svg xmlns="http://www.w3.org/2000/svg" viewBox="0 0 36.245 19" width="36.245" height="19">

  <path d="M 13.199 0 L 0 0 L 0 5.541 C 0 7.519 1.618 9.126 3.595 9.126 L 10.496 9.126 C 12.967 9.126 14.989 11.281 14.989 13.754 L 14.989 18.99 C 19.777 18.198 23.443 14.165 23.443 9.504 C 23.443 4.277 18.832 0 13.199 0 Z" fill="#E61414" fill-rule="evenodd" transform="translate(12.801 0)"></path>

  <path d="M 20.987 9.81 L 14.107 9.81 C 11.636 9.81 9.614 7.819 9.614 5.345 L 9.614 0 C 4.271 0.304 0 4.454 0 9.485 C 0 14.712 4.61 18.989 10.244 18.989 L 24.581 18.989 L 24.581 13.408 C 24.581 11.429 22.964 9.81 20.987 9.81" fill="#00486D" fill-rule="evenodd" transform="translate(0 0.011)"></path>
</svg>
