<svg width="130" height="19" viewBox="0 0 130 19" fill="none" xmlns="http://www.w3.org/2000/svg">
<path fill-rule="evenodd" clip-rule="evenodd" d="M130 12.1156C128.522 14.2328 126.022 14.8722 123.665 14.8722C119.616 14.8722 116.268 12.7756 116.268 9.50496C116.268 6.37315 119.616 4.15112 123.781 4.15112C125.705 4.15112 127.59 4.5091 129.057 5.81035L129.18 5.9209C129.241 5.97785 129.315 6.05347 129.378 6.11903C129.464 6.20661 129.531 6.28175 129.531 6.28175C129.358 6.46648 129.189 6.56841 129.03 6.61627C128.854 6.67035 128.69 6.65456 128.551 6.61244C128.268 6.52534 128.083 6.32195 128.083 6.32195C127.057 5.32794 125.779 4.96901 124.369 4.96901C121.373 4.96901 119.443 6.67897 119.443 9.56574C119.443 12.1146 120.951 13.614 123.49 13.86C123.733 13.8983 123.995 13.9198 124.282 13.9198C124.725 13.9198 125.166 13.8681 125.596 13.7787C126.168 13.671 126.709 13.4867 127.21 13.2139C127.957 12.8363 128.596 12.3247 129.038 11.7193L130 12.1156ZM53.3771 14.8722C49.3294 14.8722 45.981 12.7756 45.981 9.50499C45.981 6.37319 49.3294 4.15116 53.4952 4.15116C55.4181 4.15116 57.3033 4.50913 58.7704 5.81038L58.8938 5.92093C58.955 5.97788 59.0287 6.0535 59.0918 6.11906C59.1774 6.20664 59.2444 6.28178 59.2444 6.28178C59.0717 6.46651 58.9024 6.56845 58.7437 6.6163C58.5677 6.67038 58.4036 6.65459 58.2645 6.61248C57.9823 6.52537 57.7973 6.32198 57.7973 6.32198C56.7705 5.32798 55.4918 4.96904 54.082 4.96904C51.085 4.96904 49.1554 6.679 49.1554 9.56577C49.1554 12.1147 50.6646 13.6141 53.2035 13.86C53.4469 13.8983 53.7085 13.9199 53.9949 13.9199C54.4373 13.9199 54.8796 13.8682 55.31 13.7787C55.8806 13.671 56.4224 13.4868 56.9226 13.214C57.6705 12.8364 58.3109 12.3248 58.7518 11.7194L59.714 12.1156C58.2372 14.2329 55.7361 14.8722 53.3771 14.8722V14.8722ZM85.7213 7.3951C85.7213 9.08256 84.0365 10.536 81.6851 10.536H78.2615V10.0809C78.2615 9.82866 78.4677 9.62287 78.7182 9.62287H79.0042H80.2758C81.6258 9.62287 82.7305 8.63318 82.7305 7.42956C82.7305 6.2245 81.6258 5.23576 80.2758 5.23576H77.8211V14.6948H74.8561V4.32886H77.7082H77.7097H81.6851C84.0365 4.32886 85.7213 5.70859 85.7213 7.3951V7.3951ZM105.615 4.32883L114.607 4.32739V5.23573H108.581V8.71355H114.207V9.61327H108.581V13.7889H114.607V14.6948H105.615V4.32883ZM69.9135 14.6947L67.9815 11.4529H63.9817L64.3781 10.7498C64.4594 10.6287 64.5967 10.5503 64.7535 10.5503L67.4387 10.5483L65.7358 7.68023L61.6064 14.6947H60.0823L66.4579 4.04688L73.0932 14.6947H69.9135ZM102.437 4.32739L103.687 4.32883V5.23573H99.7031V14.6948H96.7606V5.23573L92.7761 5.23956L92.7775 4.32883L102.437 4.32739ZM87.8747 14.6753H90.8583V4.31982H87.8747V14.6753Z" fill="#363330"></path>
<path fill-rule="evenodd" clip-rule="evenodd" d="M25.9996 0H12.8008V5.54096C12.8008 7.51892 14.4186 9.12598 16.3956 9.12598H23.2967C25.7682 9.12598 27.7896 11.2805 27.7896 13.7538V18.9904C32.5775 18.1984 36.2435 14.1654 36.2435 9.50358C36.2435 4.27656 31.633 0 25.9996 0Z" fill="#E61414"></path>
<path fill-rule="evenodd" clip-rule="evenodd" d="M20.9866 9.82091H14.107C11.6355 9.82091 9.61411 7.82907 9.61411 5.35531V0.0105591C4.27097 0.314455 0 4.46467 0 9.49547C0 14.7225 4.61003 19 10.2444 19H24.5814V13.4188C24.5814 11.4399 22.9641 9.82091 20.9866 9.82091" fill="#00486D"></path>
</svg>